<svg xmlns="http://www.w3.org/2000/svg" width="293.814" height="185.854" viewBox="0 0 293.814 185.854"><g transform="translate(0 0)"><path d="M289.035,179.865a20.256,20.256,0,0,0-12-6.891l-2.244-30.452a4.6,4.6,0,0,0,4.486-3.8l.865-4.907A17.347,17.347,0,0,0,276.6,119.57a16.746,16.746,0,0,0-13.107-5.876H229.715l1.644-9.322a8.843,8.843,0,0,0-1.854-7.252,8.714,8.714,0,0,0-6.718-3.054H56.539a10.747,10.747,0,0,0-10.3,8.709l-14.708,83.42a4.6,4.6,0,1,0,9.061,1.6L55.3,104.372a1.564,1.564,0,0,1,1.241-1.106H222.211l-14.622,82.928a4.6,4.6,0,1,0,9.061,1.6l1.06-6.013h55.026a11.779,11.779,0,0,1,9.252,4,11.38,11.38,0,0,1,2.567,6.428H269.273a4.6,4.6,0,0,0-4.531,3.8l-1.73,9.814a13.094,13.094,0,0,0,2.7,10.748,12.839,12.839,0,0,0,9.913,4.465h4.331l-3.569,20.242H264.243a24.157,24.157,0,0,0-5.2-10.931,24.89,24.89,0,0,0-19.495-8.7c-12.613,0-24.781,8.252-30.478,19.628h-1.85l5.97-33.857a4.6,4.6,0,1,0-9.061-1.6l-6.252,35.454H112.716a24.16,24.16,0,0,0-5.2-10.931,24.892,24.892,0,0,0-19.5-8.7c-12.613,0-24.781,8.252-30.478,19.628H31.156l1.839-10.427H53.67a4.6,4.6,0,1,0,0-9.2H4.6a4.6,4.6,0,1,0,0,9.2H23.653l-1.644,9.322a8.843,8.843,0,0,0,1.854,7.252,8.714,8.714,0,0,0,6.718,3.054H54.554c-1.247,7.8.627,15.156,5.318,20.745a24.892,24.892,0,0,0,19.5,8.7c15.657,0,30.636-12.711,33.392-28.337.065-.37.116-.738.168-1.105h93.154c-1.248,7.8.627,15.155,5.319,20.745a24.892,24.892,0,0,0,19.5,8.7c15.657,0,30.636-12.711,33.391-28.337.065-.37.116-.738.168-1.105h15.8a4.6,4.6,0,0,0,4.531-3.8l8.653-49.07A21.32,21.32,0,0,0,289.035,179.865Zm-69.7-7.286,5.3-30.056h40.937l2.215,30.056Zm51.751-40.362-.2,1.105H226.254l1.839-10.428h35.4a7.7,7.7,0,0,1,6.058,2.589A8.083,8.083,0,0,1,271.084,132.218ZM103.7,249.987c-2.015,11.433-12.931,20.733-24.331,20.733a15.853,15.853,0,0,1-12.447-5.409c-3.012-3.589-4.159-8.464-3.231-13.726,2.016-11.433,12.931-20.733,24.331-20.733a15.852,15.852,0,0,1,12.447,5.41C103.479,239.849,104.626,244.724,103.7,249.987Zm151.527,0c-2.016,11.433-12.931,20.733-24.331,20.733a15.852,15.852,0,0,1-12.447-5.41c-3.012-3.589-4.159-8.464-3.231-13.726,2.015-11.433,12.931-20.733,24.331-20.733a15.852,15.852,0,0,1,12.447,5.41C255.006,239.849,256.154,244.724,255.226,249.987Zm26.354-38.15h-5.954a3.591,3.591,0,0,1-2.865-1.178,3.894,3.894,0,0,1-.689-3.237l1.06-6.012h10.285Z" transform="translate(0 -94.066)"/></g><g transform="translate(74.111 147.212)"><path d="M146.312,353.651a8.715,8.715,0,0,0-6.719-3.054,10.747,10.747,0,0,0-10.3,8.709,8.843,8.843,0,0,0,1.854,7.252,8.714,8.714,0,0,0,6.718,3.054,10.748,10.748,0,0,0,10.3-8.708A8.839,8.839,0,0,0,146.312,353.651Z" transform="translate(-129.146 -350.597)"/></g><g transform="translate(225.639 147.212)"><path d="M410.364,353.651a8.716,8.716,0,0,0-6.718-3.054,10.746,10.746,0,0,0-10.3,8.708,8.841,8.841,0,0,0,1.854,7.252,8.714,8.714,0,0,0,6.718,3.054,10.748,10.748,0,0,0,10.3-8.708A8.84,8.84,0,0,0,410.364,353.651Z" transform="translate(-393.199 -350.597)"/></g><g transform="translate(122.675 127.584)"><path d="M276.669,316.393H218.375a4.6,4.6,0,0,0,0,9.2h58.294a4.6,4.6,0,1,0,0-9.2Z" transform="translate(-213.774 -316.393)"/></g><g transform="translate(13.275 107.955)"><path d="M112.6,282.189H27.734a4.6,4.6,0,1,0,0,9.2H112.6a4.6,4.6,0,1,0,0-9.2Z" transform="translate(-23.133 -282.189)"/></g><g transform="translate(53.977 73.606)"><path d="M230.676,238.173l-17.032-14.721a4.6,4.6,0,1,0-6.017,6.961l7.683,6.641H98.661a4.6,4.6,0,0,0,0,9.2H212.392l-9.489,6.286a4.6,4.6,0,1,0,5.081,7.67l22.224-14.721a4.6,4.6,0,0,0,.468-7.317Z" transform="translate(-94.06 -222.332)"/></g></svg>