<svg xmlns="http://www.w3.org/2000/svg" width="184.641" height="243.523" viewBox="0 0 184.641 243.523"><g transform="translate(22.821 22.869)"><path d="M210.464,55.556A69.349,69.349,0,0,0,124.426,159.98a3.838,3.838,0,0,0,6.058-4.714A61.674,61.674,0,0,1,207,62.406a3.837,3.837,0,1,0,3.461-6.85Z" transform="translate(-109.878 -48.082)"/></g><g transform="translate(48.139 58.886)"><path d="M269.021,125.915a3.838,3.838,0,0,0-6.852,3.46A61.674,61.674,0,0,1,169.3,205.882a3.838,3.838,0,1,0-4.714,6.057,69.349,69.349,0,0,0,104.431-86.024Z" transform="translate(-163.109 -123.806)"/></g><g transform="translate(131.63 39.29)"><path d="M351.153,89.693c-.951-1.076-1.95-2.138-2.969-3.157s-2.081-2.018-3.157-2.969a3.838,3.838,0,0,0-5.084,5.751c.958.847,1.9,1.737,2.813,2.645s1.8,1.854,2.645,2.813a3.838,3.838,0,0,0,5.751-5.083Z" transform="translate(-338.647 -82.605)"/></g><g transform="translate(0 0)"><path d="M244.62,99.126a13.023,13.023,0,0,0,0-13.611l-5.049-8.279a5.4,5.4,0,0,1-.723-3.648l1.5-9.562a13.018,13.018,0,0,0-5.223-12.6L227.3,45.731a5.4,5.4,0,0,1-2.071-3.094l-2.279-9.417a13.019,13.019,0,0,0-9.63-9.631l-9.418-2.279a5.4,5.4,0,0,1-3.094-2.071l-5.692-7.827a13.015,13.015,0,0,0-12.6-5.224l-9.565,1.5a5.4,5.4,0,0,1-3.648-.723l-8.281-5.05a13.022,13.022,0,0,0-13.611,0l-8.28,5.049a5.4,5.4,0,0,1-3.648.723l-9.562-1.5a13.018,13.018,0,0,0-12.6,5.224l-5.691,7.825a5.4,5.4,0,0,1-3.1,2.071l-9.417,2.279a13.021,13.021,0,0,0-9.631,9.63l-2.279,9.417a5.4,5.4,0,0,1-2.071,3.094l-7.827,5.692a13.017,13.017,0,0,0-5.224,12.6l1.5,9.565a5.4,5.4,0,0,1-.723,3.648l-5.05,8.281a13.023,13.023,0,0,0,0,13.61l5.049,8.28a5.4,5.4,0,0,1,.723,3.648l-1.5,9.562a13.017,13.017,0,0,0,5.223,12.6l7.825,5.691a5.4,5.4,0,0,1,2.071,3.094l2.279,9.417a13.019,13.019,0,0,0,9.63,9.631l3.933.952L72.432,221.371a3.838,3.838,0,0,0,3.957,5.38l21.414-2.56,12.336,17.689a3.839,3.839,0,0,0,3.147,1.642c.119,0,.24-.006.36-.017a3.839,3.839,0,0,0,3.143-2.251l27.18-60.633,3.444,2.1a13.023,13.023,0,0,0,13.611,0l3.568-2.176,27.214,60.709a3.837,3.837,0,0,0,3.143,2.251c.12.011.241.017.36.017a3.838,3.838,0,0,0,3.147-1.642l12.336-17.689,21.414,2.56a3.838,3.838,0,0,0,3.957-5.38l-26.627-59.4,3.785-.916a13.021,13.021,0,0,0,9.631-9.63l2.279-9.417a5.4,5.4,0,0,1,2.071-3.094l7.827-5.692a13.017,13.017,0,0,0,5.224-12.6l-1.5-9.565a5.4,5.4,0,0,1,.723-3.648Zm-132.063,132.8-9.776-14.019a3.836,3.836,0,0,0-3.6-1.615l-16.97,2.029,24.247-54.09a5.367,5.367,0,0,1,1.169,1.168l5.692,7.827a13.191,13.191,0,0,0,1.811,2.018l-12.763,28.47a3.837,3.837,0,1,0,7,3.14l12.717-28.369a13.135,13.135,0,0,0,3.833-.035l9.565-1.5a5.388,5.388,0,0,1,1.715.011Zm113.83-13.606-16.97-2.028a3.835,3.835,0,0,0-3.6,1.615l-9.776,14.019-24.651-54.992a5.4,5.4,0,0,1,1.566.011l9.562,1.5a13.144,13.144,0,0,0,3.985.011l12.727,28.391a3.837,3.837,0,1,0,7-3.14L193.418,175.14a13.208,13.208,0,0,0,1.7-1.909l5.691-7.825a5.387,5.387,0,0,1,1.292-1.258ZM238.067,95.13l-5.05,8.281a13.09,13.09,0,0,0-1.752,8.836l1.5,9.565a5.375,5.375,0,0,1-2.156,5.2l-7.827,5.693a13.087,13.087,0,0,0-5.016,7.5l-2.279,9.417a5.376,5.376,0,0,1-3.976,3.976l-9.418,2.279a13.086,13.086,0,0,0-7.5,5.016l-5.691,7.825a5.371,5.371,0,0,1-5.2,2.156l-9.562-1.5a13.088,13.088,0,0,0-8.838,1.752l-8.279,5.049a5.378,5.378,0,0,1-5.618,0l-8.281-5.049a13.082,13.082,0,0,0-8.837-1.752l-9.565,1.5a5.373,5.373,0,0,1-5.2-2.157l-5.693-7.826a13.087,13.087,0,0,0-7.5-5.016l-9.417-2.279a5.376,5.376,0,0,1-3.976-3.976L90.663,140.2a13.084,13.084,0,0,0-5.016-7.5l-7.824-5.692a5.373,5.373,0,0,1-2.156-5.2l1.5-9.562a13.087,13.087,0,0,0-1.752-8.837l-5.049-8.28a5.376,5.376,0,0,1,0-5.618l5.05-8.281a13.087,13.087,0,0,0,1.752-8.836l-1.5-9.565a5.375,5.375,0,0,1,2.157-5.2l7.827-5.693a13.086,13.086,0,0,0,5.016-7.5l2.279-9.417a5.376,5.376,0,0,1,3.976-3.976l9.417-2.279a13.083,13.083,0,0,0,7.5-5.016l5.691-7.825a5.372,5.372,0,0,1,5.2-2.157l9.562,1.5a13.082,13.082,0,0,0,8.838-1.752l8.279-5.049a5.378,5.378,0,0,1,5.618,0l8.281,5.049a13.081,13.081,0,0,0,8.837,1.753l9.565-1.5a5.377,5.377,0,0,1,5.2,2.157l5.693,7.827a13.086,13.086,0,0,0,7.5,5.016l9.418,2.279a5.376,5.376,0,0,1,3.976,3.976l2.279,9.417a13.084,13.084,0,0,0,5.016,7.5l7.825,5.691a5.373,5.373,0,0,1,2.156,5.2l-1.5,9.562a13.087,13.087,0,0,0,1.752,8.837l5.049,8.28A5.375,5.375,0,0,1,238.067,95.13Z" transform="translate(-61.898 0)"/></g><g transform="translate(47.064 47.752)"><path d="M251.013,133.026a6.866,6.866,0,0,0-5.778-4.744l-23.092-2.738-9.74-21.116a6.935,6.935,0,0,0-12.595,0l-9.74,21.116-23.092,2.738a6.935,6.935,0,0,0-3.892,11.977l17.073,15.789-4.532,22.808a6.958,6.958,0,0,0,6.793,8.3,6.939,6.939,0,0,0,3.4-.9L206.1,174.9,226.4,186.258a6.934,6.934,0,0,0,10.189-7.4l-4.532-22.808,17.073-15.789A6.866,6.866,0,0,0,251.013,133.026Zm-25.748,18.846a3.839,3.839,0,0,0-1.159,3.565l4.637,23.34-20.765-11.623a3.837,3.837,0,0,0-3.749,0l-20.765,11.623,4.637-23.34a3.835,3.835,0,0,0-1.159-3.565l-17.471-16.157,23.632-2.8a3.839,3.839,0,0,0,3.033-2.2L206.1,109.1l9.967,21.608a3.838,3.838,0,0,0,3.033,2.2l23.631,2.8Z" transform="translate(-160.849 -100.398)"/></g></svg>