<svg xmlns="http://www.w3.org/2000/svg" width="243.523" height="235.108" viewBox="0 0 243.523 235.108"><g transform="translate(0 27.573)"><path d="M207.377,235.639a15.985,15.985,0,0,0-8.038-11.864l-42.126-23.7a16.624,16.624,0,0,0-19.838,2.725L122.582,217.6a8.711,8.711,0,0,1-11.286.878,269.668,269.668,0,0,1-29.689-25.731,269.726,269.726,0,0,1-25.731-29.689,8.711,8.711,0,0,1,.878-11.286l14.793-14.793a16.622,16.622,0,0,0,2.725-19.838L50.577,75.013a15.982,15.982,0,0,0-11.864-8.038,16.97,16.97,0,0,0-14.4,4.92L8.71,87.5c-11.022,11.022-11.6,30.755-1.632,55.565,9.537,23.733,27.685,49.7,51.1,73.113s49.38,41.563,73.113,51.1c11.752,4.723,22.363,7.078,31.451,7.078,10.1,0,18.312-2.908,24.114-8.71l15.6-15.6A16.975,16.975,0,0,0,207.377,235.639Zm-10.5,8.823-2.727,2.726L158.238,227.6a3.945,3.945,0,1,0-3.777,6.926L188.336,253l-7.061,7.061c-8.521,8.52-25.668,8.48-47.044-.109-22.768-9.15-47.8-26.678-70.476-49.358S23.547,162.889,14.4,140.121c-8.59-21.377-8.63-38.524-.109-47.044l7.06-7.061,3.777,6.923a3.945,3.945,0,1,0,6.926-3.778L27.164,80.2l2.726-2.726a9.218,9.218,0,0,1,6.527-2.766,9.049,9.049,0,0,1,1.222.084A8.154,8.154,0,0,1,43.7,78.882L67.4,121.008A8.707,8.707,0,0,1,65.968,131.4l-7.039,7.039L40.457,104.572a3.945,3.945,0,1,0-6.926,3.777l19.584,35.9-1.939,1.939a16.646,16.646,0,0,0-1.632,21.57,277.7,277.7,0,0,0,26.485,30.563,277.542,277.542,0,0,0,30.563,26.485,16.646,16.646,0,0,0,21.57-1.632l1.939-1.939,8.958,4.886a3.945,3.945,0,0,0,3.777-6.926l-6.921-3.776,7.039-7.039a8.709,8.709,0,0,1,10.392-1.427L195.47,230.65a8.156,8.156,0,0,1,4.089,6.061A9.149,9.149,0,0,1,196.877,244.462Z" transform="translate(0 -66.817)"/></g><g transform="translate(147.272 63.115)"><path d="M351.449,179.412h-4.47V145.488a3.945,3.945,0,1,0-7.89,0v33.924H318.5l7.348-33.069a3.945,3.945,0,0,0-7.7-1.711L309.728,182.5a3.945,3.945,0,0,0,3.851,4.8h25.509v12.886a3.945,3.945,0,1,0,7.89,0V187.3h4.47a3.945,3.945,0,1,0,0-7.889Z" transform="translate(-309.634 -141.542)"/></g><g transform="translate(100.987 63.115)"><path d="M249.93,196.244H220.9c1.716-4.519,6.572-7.393,13.576-11.215,8.644-4.717,19.4-10.587,19.4-23.912,0-10.793-9.32-19.573-20.776-19.573s-20.776,8.78-20.776,19.573a3.945,3.945,0,1,0,7.89,0c0-6.442,5.781-11.684,12.886-11.684s12.886,5.241,12.886,11.684c0,8.061-5.777,11.795-15.291,16.986-8.611,4.7-18.371,10.026-18.371,22.085a3.945,3.945,0,0,0,3.945,3.945h33.661a3.945,3.945,0,1,0,0-7.889Z" transform="translate(-212.323 -141.544)"/></g><g transform="translate(67.326 0)"><path d="M296.2,173.022l-7.682,1.536A96.518,96.518,0,1,0,142.27,49.853,3.945,3.945,0,1,0,148.72,54.4a88.626,88.626,0,1,1,133.532,115.23l1.759-8.793a3.945,3.945,0,0,0-7.737-1.547l-4.207,21.039a3.945,3.945,0,0,0,4.642,4.642l21.039-4.208a3.945,3.945,0,1,0-1.548-7.736Z" transform="translate(-141.55 -8.846)"/></g><g transform="translate(143.065 16.831)"><path d="M304.734,44.232a3.945,3.945,0,0,0-3.945,3.945v8.415a3.945,3.945,0,0,0,7.89,0V48.177A3.945,3.945,0,0,0,304.734,44.232Z" transform="translate(-300.789 -44.232)"/></g><g transform="translate(210.387 92.569)"><path d="M454.693,203.47h-8.415a3.945,3.945,0,0,0,0,7.89h8.415a3.945,3.945,0,1,0,0-7.89Z" transform="translate(-442.333 -203.47)"/></g><g transform="translate(77.473 54.7)"><path d="M176.091,128.587l-7.288-4.207a3.945,3.945,0,0,0-3.945,6.832l7.288,4.207a3.945,3.945,0,0,0,3.945-6.832Z" transform="translate(-162.886 -123.85)"/></g><g transform="translate(201.368 126.23)"><path d="M436.575,278.977l-7.288-4.208a3.945,3.945,0,1,0-3.945,6.832l7.288,4.207a3.944,3.944,0,0,0,3.945-6.832Z" transform="translate(-423.369 -274.24)"/></g><g transform="translate(176.726 26.977)"><path d="M381.687,66.094a3.944,3.944,0,0,0-5.388,1.444l-4.207,7.288a3.944,3.944,0,1,0,6.832,3.944l4.208-7.288A3.944,3.944,0,0,0,381.687,66.094Z" transform="translate(-371.562 -65.565)"/></g><g transform="translate(105.195 150.872)"><path d="M231.295,326.578a3.944,3.944,0,0,0-5.388,1.444L221.7,335.31a3.944,3.944,0,1,0,6.832,3.944l4.208-7.288A3.944,3.944,0,0,0,231.295,326.578Z" transform="translate(-221.17 -326.049)"/></g><g transform="translate(201.368 54.699)"><path d="M438.019,125.823a3.944,3.944,0,0,0-5.388-1.444l-7.288,4.208a3.945,3.945,0,1,0,3.945,6.832l7.288-4.207A3.946,3.946,0,0,0,438.019,125.823Z" transform="translate(-423.37 -123.85)"/></g><g transform="translate(77.473 126.23)"><path d="M177.534,276.214a3.944,3.944,0,0,0-5.388-1.444l-7.288,4.208a3.945,3.945,0,1,0,3.945,6.832l7.288-4.207A3.946,3.946,0,0,0,177.534,276.214Z" transform="translate(-162.885 -274.24)"/></g><g transform="translate(105.195 26.977)"><path d="M232.739,74.826l-4.207-7.288a3.945,3.945,0,0,0-6.832,3.945l4.208,7.288a3.944,3.944,0,1,0,6.831-3.945Z" transform="translate(-221.17 -65.565)"/></g><g transform="translate(176.726 150.872)"><path d="M383.13,335.31l-4.207-7.288a3.945,3.945,0,0,0-6.832,3.945l4.207,7.288a3.945,3.945,0,1,0,6.832-3.945Z" transform="translate(-371.561 -326.049)"/></g></svg>