<svg xmlns="http://www.w3.org/2000/svg" viewBox="0 0 158.91 106.64"><defs><style>.cls-1,.cls-7{fill:none;}.cls-1,.cls-3,.cls-7{stroke:#fff;stroke-linecap:round;stroke-miterlimit:10;}.cls-2,.cls-3,.cls-4{fill:#fff;}.cls-4{font-size:21.36px;font-family:Musket;}.cls-5{letter-spacing:0.02em;}.cls-6{letter-spacing:-0.01em;}.cls-7{stroke-width:4px;}</style></defs><g id="Layer_2" data-name="Layer 2"><g id="Layer_2-2" data-name="Layer 2"><line class="cls-1" x1="11.85" y1="70.5" x2="27.45" y2="48.92"/><line class="cls-1" x1="18.77" y1="74.76" x2="48.91" y2="42"/><line class="cls-1" x1="25.31" y1="78.78" x2="73.92" y2="32.21"/><line class="cls-1" x1="32.22" y1="83.03" x2="99.66" y2="22.56"/><circle class="cls-2" cx="27.3" cy="49.13" r="2.08"/><circle class="cls-2" cx="48.89" cy="42.04" r="2.08"/><circle class="cls-2" cx="73.92" cy="32.21" r="2.08"/><circle class="cls-2" cx="99.66" cy="22.56" r="2.08"/><circle class="cls-3" cx="125.09" cy="11.12" r="2.93"/><text class="cls-4" transform="matrix(0.86, -0.51, 0.51, 0.86, 44.55, 100.59)">Guit<tspan class="cls-5" x="42.29" y="0">a</tspan><tspan x="55.75" y="0">r Eag</tspan><tspan class="cls-6" x="110.67" y="0">l</tspan><tspan x="116.56" y="0">e</tspan></text><path class="cls-7" d="M7.87,68.06a24.07,24.07,0,0,0,1.46-10,24.8,24.8,0,0,0-6-14.34C21.59,36,40.86,28.44,61.1,21.09q25.8-9.36,50.23-17c11.15-3.91,22.54-2.2,29.17,4.69a21.53,21.53,0,0,1,5.26,9.74,82.7,82.7,0,0,0-11.87,2.94c-13.82,4.55-15.77,9.36-32.53,19.19C88.87,47.94,83.43,49.17,65,60.38c-1.21.73-2.28,1.39-3.29,2A353.88,353.88,0,0,0,32.22,83Z"/></g></g></svg>